<svg width="1366" height="1024" viewBox="0 0 1366 1024" fill="none" xmlns="http://www.w3.org/2000/svg">
<g clip-path="url(#clip0_309_609)">
<rect width="1366" height="1024" fill="#FFE4CC"/>
<path d="M6 213.9C6 213.9 259.813 -26.4945 458 -36.6844C802.262 -54.3848 761.211 678.554 1101 616.239C1309.23 578.052 1522 249.543 1522 249.543" stroke="#DD904C" stroke-dasharray="20 20"/>
<path d="M939.408 1383.28C939.408 1383.28 596.868 1453.11 423.264 1356.97C121.704 1189.97 544.09 589.57 222.737 462.797C25.8058 385.108 -328.489 551.434 -328.489 551.434" stroke="#DD904C" stroke-dasharray="20 20"/>
<path d="M938.705 1276.56C938.705 1276.56 675.323 1046.69 646.383 850.363C596.113 509.332 1329.64 480.686 1235.38 148.339C1177.62 -55.3297 830.412 -235.987 830.412 -235.987" stroke="#DD904C" stroke-dasharray="20 20"/>
<rect x="67" y="825" width="184" height="184" rx="40" transform="rotate(30 67 825)" fill="#FBD5AE"/>
<rect x="1230" y="-66" width="184" height="184" rx="40" transform="rotate(30 1230 -66)" fill="#FBD5AE"/>
</g>
<defs>
<clipPath id="clip0_309_609">
<rect width="1366" height="1024" fill="white"/>
</clipPath>
</defs>
</svg>
