<svg width="149" height="149" viewBox="0 0 149 149" fill="none" xmlns="http://www.w3.org/2000/svg">
<g filter="url(#filter0_di_235_816)">
<circle cx="71.5" cy="71.5" r="54.5" fill="#EB9837"/>
<circle cx="71.5" cy="71.5" r="58.338" stroke="white" stroke-width="7.67606"/>
</g>
<path fill-rule="evenodd" clip-rule="evenodd" d="M49 41.4167C49 40.9083 49.2019 40.4208 49.5614 40.0614C49.9208 39.7019 50.4083 39.5 50.9167 39.5H93.0833C93.5917 39.5 94.0792 39.7019 94.4386 40.0614C94.7981 40.4208 95 40.9083 95 41.4167V43.3333H104.583C105.092 43.3333 105.579 43.5353 105.939 43.8947C106.298 44.2542 106.5 44.7417 106.5 45.25V56.75C106.5 59.2917 105.49 61.7292 103.693 63.5264C101.896 65.3237 99.4583 66.3333 96.9167 66.3333H93.6909C92.3209 70.1995 89.9434 73.6296 86.804 76.2693C83.6646 78.909 79.8772 80.6625 75.8333 81.3485V93.1667H87.3333C87.8417 93.1667 88.3292 93.3686 88.6886 93.728C89.0481 94.0875 89.25 94.575 89.25 95.0833V106.583C89.25 107.092 89.0481 107.579 88.6886 107.939C88.3292 108.298 87.8417 108.5 87.3333 108.5H56.6667C56.1583 108.5 55.6708 108.298 55.3114 107.939C54.9519 107.579 54.75 107.092 54.75 106.583V95.0833C54.75 94.575 54.9519 94.0875 55.3114 93.728C55.6708 93.3686 56.1583 93.1667 56.6667 93.1667H68.1667V81.3485C64.1228 80.6625 60.3354 78.909 57.196 76.2693C54.0566 73.6296 51.6791 70.1995 50.3091 66.3333H47.0833C44.5417 66.3333 42.1041 65.3237 40.3069 63.5264C38.5097 61.7292 37.5 59.2917 37.5 56.75V45.25C37.5 44.7417 37.7019 44.2542 38.0614 43.8947C38.4208 43.5353 38.9083 43.3333 39.4167 43.3333H49V41.4167ZM95 58.6667V47.1667H102.667V56.75C102.667 58.275 102.061 59.7375 100.983 60.8159C99.9042 61.8942 98.4417 62.5 96.9167 62.5H95V58.6667ZM49 47.1667H41.3333V56.75C41.3333 58.275 41.9391 59.7375 43.0175 60.8159C44.0958 61.8942 45.5583 62.5 47.0833 62.5H49V47.1667Z" fill="white"/>
<defs>
<filter id="filter0_di_235_816" x="0.880251" y="0.880312" width="147.38" height="147.38" filterUnits="userSpaceOnUse" color-interpolation-filters="sRGB">
<feFlood flood-opacity="0" result="BackgroundImageFix"/>
<feColorMatrix in="SourceAlpha" type="matrix" values="0 0 0 0 0 0 0 0 0 0 0 0 0 0 0 0 0 0 127 0" result="hardAlpha"/>
<feOffset dx="3.07042" dy="3.07042"/>
<feGaussianBlur stdDeviation="5.75704"/>
<feComposite in2="hardAlpha" operator="out"/>
<feColorMatrix type="matrix" values="0 0 0 0 0 0 0 0 0 0 0 0 0 0 0 0 0 0 0.25 0"/>
<feBlend mode="normal" in2="BackgroundImageFix" result="effect1_dropShadow_235_816"/>
<feBlend mode="normal" in="SourceGraphic" in2="effect1_dropShadow_235_816" result="shape"/>
<feColorMatrix in="SourceAlpha" type="matrix" values="0 0 0 0 0 0 0 0 0 0 0 0 0 0 0 0 0 0 127 0" result="hardAlpha"/>
<feOffset dy="3.07042"/>
<feGaussianBlur stdDeviation="1.53521"/>
<feComposite in2="hardAlpha" operator="arithmetic" k2="-1" k3="1"/>
<feColorMatrix type="matrix" values="0 0 0 0 1 0 0 0 0 1 0 0 0 0 1 0 0 0 0.25 0"/>
<feBlend mode="normal" in2="shape" result="effect2_innerShadow_235_816"/>
</filter>
</defs>
</svg>
