<svg width="460" height="485" viewBox="0 0 460 485" fill="none" xmlns="http://www.w3.org/2000/svg">
<rect x="2.72852" y="129.969" width="41.404" height="125.52" rx="17.2338" transform="rotate(-10.5896 2.72852 129.969)" fill="url(#paint0_linear_660_639)"/>
<rect x="431.102" y="253.625" width="41.404" height="125.52" rx="17.2338" transform="rotate(-168.77 431.102 253.625)" fill="url(#paint1_linear_660_639)"/>
<g filter="url(#filter0_ii_660_639)">
<path d="M20.9564 118.391C10.026 56.6405 57.521 0 120.231 0H337.053C400.664 0 448.378 58.1867 435.919 120.565L410.561 247.521C401.146 294.657 359.763 328.592 311.696 328.592H142.704C93.8026 328.592 51.9524 293.499 43.4289 245.347L20.9564 118.391Z" fill="#34ACF0"/>
</g>
<g filter="url(#filter1_di_660_639)">
<path d="M64.369 139.334C56.3663 78.9225 103.375 25.2764 164.314 25.2764H302.865C366.478 25.2764 414.193 83.4672 401.729 145.847L386.522 221.963C377.104 269.097 335.723 303.028 287.658 303.028H174.397C123.834 303.028 81.0921 265.575 74.4521 215.45L64.369 139.334Z" fill="#3C3C3C"/>
</g>
<g filter="url(#filter2_i_660_639)">
<circle cx="293.837" cy="135.429" r="52.9941" fill="white"/>
</g>
<g filter="url(#filter3_i_660_639)">
<circle cx="181.242" cy="135.429" r="52.9941" fill="white"/>
</g>
<path d="M372.174 32.8956C372.293 29.7252 374.973 27.2118 378.098 27.7567C386.52 29.2247 394.352 33.2086 400.526 39.2489C406.7 45.2893 410.854 53.0323 412.507 61.4198C413.12 64.5326 410.666 67.2666 407.498 67.4548L403.255 67.707C400.088 67.8951 397.428 65.4477 396.569 62.3933C395.31 57.9117 392.893 53.8021 389.518 50.5003C386.144 47.1986 381.982 44.8726 377.474 43.7115C374.401 42.9202 371.896 40.3144 372.015 37.1439L372.174 32.8956Z" fill="white" fill-opacity="0.34"/>
<path d="M287.949 211.689C291.122 211.689 293.744 214.281 293.183 217.403C291.537 226.568 285.963 235.135 277.205 241.748C266.647 249.72 252.328 254.199 237.397 254.199C222.466 254.199 208.146 249.72 197.589 241.748C188.831 235.135 183.257 226.568 181.61 217.403C181.049 214.281 183.672 211.689 186.844 211.689L196.201 211.689C199.373 211.689 201.874 214.309 202.749 217.358C204.18 222.342 207.479 226.956 212.329 230.618C218.977 235.638 227.994 238.458 237.397 238.458C246.799 238.458 255.816 235.638 262.465 230.618C267.315 226.956 270.614 222.342 272.045 217.358C272.92 214.309 275.42 211.689 278.593 211.689H287.949Z" fill="white"/>
<path d="M153.525 155.392C150.353 155.392 147.73 152.801 148.281 149.676C149.452 143.038 152.646 136.865 157.497 132.035C163.719 125.84 172.157 122.36 180.956 122.36C189.754 122.36 198.193 125.84 204.414 132.035C209.266 136.865 212.459 143.038 213.631 149.676C214.182 152.801 211.559 155.392 208.386 155.392L207.591 155.392C204.419 155.392 201.924 152.772 201.055 149.72C200.092 146.335 198.272 143.216 195.728 140.683C191.81 136.783 186.496 134.591 180.956 134.591C175.415 134.591 170.101 136.783 166.183 140.683C163.64 143.216 161.82 146.335 160.856 149.72C159.987 152.772 157.493 155.392 154.32 155.392L153.525 155.392Z" fill="#34ACF0"/>
<circle cx="293.694" cy="135.573" r="21.8295" fill="#34ACF0"/>
<path d="M241.127 198.62C239.468 201.492 235.323 201.492 233.664 198.62L230.928 193.881C229.27 191.008 231.343 187.418 234.659 187.418L240.132 187.418C243.448 187.418 245.521 191.008 243.863 193.881L241.127 198.62Z" fill="#E44734"/>
<path d="M117.326 442.407L91.4493 446.941V455.124H71.7656V384.241H45.8894V481H117.215V442.407H117.326ZM177.194 450.037L157.51 454.681V415.093L177.194 410.449V450.037ZM131.744 400.164V481H203.07V400.164C203.07 391.318 195.882 384.13 187.035 384.13H147.558C138.711 384.13 131.523 391.318 131.523 400.164H131.744ZM239.477 410.117H284.927V400.275C284.927 391.428 277.739 384.241 268.892 384.241H229.636C220.789 384.241 213.601 391.428 213.601 400.275V481H284.927V417.747L244.454 424.824V448.599L259.05 446.056V455.124H239.367V410.117H239.477ZM321.334 384.241H295.458V481H321.334V384.241ZM377.41 422.502L357.837 425.93V410.006H377.521V422.502H377.41ZM387.363 384.241H347.996C339.149 384.241 331.961 391.318 331.961 400.164V481H357.837V452.249L377.41 448.821V481H403.176V400.164C403.176 391.318 396.099 384.241 387.252 384.241H387.363Z" fill="#34ACF0"/>
<path d="M303.269 349.463C304.927 346.59 309.073 346.59 310.731 349.463L320.589 366.537C322.248 369.41 320.175 373 316.858 373H297.142C293.825 373 291.752 369.41 293.411 366.537L303.269 349.463Z" fill="#E44734"/>
<defs>
<filter id="filter0_ii_660_639" x="19.3857" y="0" width="425.7" height="329.741" filterUnits="userSpaceOnUse" color-interpolation-filters="sRGB">
<feFlood flood-opacity="0" result="BackgroundImageFix"/>
<feBlend mode="normal" in="SourceGraphic" in2="BackgroundImageFix" result="shape"/>
<feColorMatrix in="SourceAlpha" type="matrix" values="0 0 0 0 0 0 0 0 0 0 0 0 0 0 0 0 0 0 127 0" result="hardAlpha"/>
<feOffset dx="2.87231" dy="1.14892"/>
<feGaussianBlur stdDeviation="5.74461"/>
<feComposite in2="hardAlpha" operator="arithmetic" k2="-1" k3="1"/>
<feColorMatrix type="matrix" values="0 0 0 0 1 0 0 0 0 1 0 0 0 0 1 0 0 0 0.4 0"/>
<feBlend mode="normal" in2="shape" result="effect1_innerShadow_660_639"/>
<feColorMatrix in="SourceAlpha" type="matrix" values="0 0 0 0 0 0 0 0 0 0 0 0 0 0 0 0 0 0 127 0" result="hardAlpha"/>
<feOffset dx="13.7871" dy="0.574461"/>
<feGaussianBlur stdDeviation="3.59038"/>
<feComposite in2="hardAlpha" operator="arithmetic" k2="-1" k3="1"/>
<feColorMatrix type="matrix" values="0 0 0 0 0.0313542 0 0 0 0 0.264181 0 0 0 0 0.5375 0 0 0 0.38 0"/>
<feBlend mode="normal" in2="effect1_innerShadow_660_639" result="effect2_innerShadow_660_639"/>
</filter>
<filter id="filter1_di_660_639" x="59.171" y="25.2764" width="348.855" height="291.252" filterUnits="userSpaceOnUse" color-interpolation-filters="sRGB">
<feFlood flood-opacity="0" result="BackgroundImageFix"/>
<feColorMatrix in="SourceAlpha" type="matrix" values="0 0 0 0 0 0 0 0 0 0 0 0 0 0 0 0 0 0 127 0" result="hardAlpha"/>
<feOffset dy="9.19138"/>
<feGaussianBlur stdDeviation="2.15423"/>
<feComposite in2="hardAlpha" operator="out"/>
<feColorMatrix type="matrix" values="0 0 0 0 0 0 0 0 0 0 0 0 0 0 0 0 0 0 0.35 0"/>
<feBlend mode="normal" in2="BackgroundImageFix" result="effect1_dropShadow_660_639"/>
<feBlend mode="normal" in="SourceGraphic" in2="effect1_dropShadow_660_639" result="shape"/>
<feColorMatrix in="SourceAlpha" type="matrix" values="0 0 0 0 0 0 0 0 0 0 0 0 0 0 0 0 0 0 127 0" result="hardAlpha"/>
<feOffset dx="-2.87231" dy="5.74461"/>
<feGaussianBlur stdDeviation="14.3615"/>
<feComposite in2="hardAlpha" operator="arithmetic" k2="-1" k3="1"/>
<feColorMatrix type="matrix" values="0 0 0 0 1 0 0 0 0 1 0 0 0 0 1 0 0 0 0.25 0"/>
<feBlend mode="normal" in2="shape" result="effect2_innerShadow_660_639"/>
</filter>
<filter id="filter2_i_660_639" x="240.843" y="82.4351" width="105.988" height="107.137" filterUnits="userSpaceOnUse" color-interpolation-filters="sRGB">
<feFlood flood-opacity="0" result="BackgroundImageFix"/>
<feBlend mode="normal" in="SourceGraphic" in2="BackgroundImageFix" result="shape"/>
<feColorMatrix in="SourceAlpha" type="matrix" values="0 0 0 0 0 0 0 0 0 0 0 0 0 0 0 0 0 0 127 0" result="hardAlpha"/>
<feOffset dy="1.14892"/>
<feGaussianBlur stdDeviation="0.574461"/>
<feComposite in2="hardAlpha" operator="arithmetic" k2="-1" k3="1"/>
<feColorMatrix type="matrix" values="0 0 0 0 1 0 0 0 0 1 0 0 0 0 1 0 0 0 0.25 0"/>
<feBlend mode="normal" in2="shape" result="effect1_innerShadow_660_639"/>
</filter>
<filter id="filter3_i_660_639" x="128.248" y="82.4351" width="105.988" height="107.137" filterUnits="userSpaceOnUse" color-interpolation-filters="sRGB">
<feFlood flood-opacity="0" result="BackgroundImageFix"/>
<feBlend mode="normal" in="SourceGraphic" in2="BackgroundImageFix" result="shape"/>
<feColorMatrix in="SourceAlpha" type="matrix" values="0 0 0 0 0 0 0 0 0 0 0 0 0 0 0 0 0 0 127 0" result="hardAlpha"/>
<feOffset dy="1.14892"/>
<feGaussianBlur stdDeviation="0.574461"/>
<feComposite in2="hardAlpha" operator="arithmetic" k2="-1" k3="1"/>
<feColorMatrix type="matrix" values="0 0 0 0 1 0 0 0 0 1 0 0 0 0 1 0 0 0 0.25 0"/>
<feBlend mode="normal" in2="shape" result="effect1_innerShadow_660_639"/>
</filter>
<linearGradient id="paint0_linear_660_639" x1="2.95877" y1="199.852" x2="18.7157" y2="200.753" gradientUnits="userSpaceOnUse">
<stop stop-color="#464646"/>
<stop offset="1" stop-color="#656565"/>
</linearGradient>
<linearGradient id="paint1_linear_660_639" x1="433.732" y1="323.822" x2="451.009" y2="323.82" gradientUnits="userSpaceOnUse">
<stop offset="0.0001" stop-color="#464646"/>
<stop offset="1" stop-color="#656565"/>
</linearGradient>
</defs>
</svg>
