<svg width="148" height="149" viewBox="0 0 148 149" fill="none" xmlns="http://www.w3.org/2000/svg">
<g filter="url(#filter0_di_235_808)">
<circle cx="71.1621" cy="71.5" r="54.5" fill="#B1B1B1"/>
<circle cx="71.1621" cy="71.5" r="58.338" stroke="white" stroke-width="7.67606"/>
</g>
<path d="M78.3584 109.88H63.9658C63.0062 109.88 62.1747 109.56 61.471 108.921C60.7674 108.281 60.3516 107.482 60.2237 106.522L59.0723 97.5986C58.2407 97.2788 57.4577 96.895 56.7234 96.4472C55.9865 95.9995 55.2662 95.5197 54.5626 95.008L46.2149 98.4622C45.3193 98.782 44.4238 98.814 43.5283 98.5581C42.6327 98.3023 41.9291 97.7585 41.4173 96.927L34.317 84.5493C33.8052 83.7178 33.6453 82.8222 33.8372 81.8627C34.0291 80.9032 34.5089 80.1356 35.2765 79.5599L42.4728 74.0907C42.4088 73.6429 42.3768 73.2105 42.3768 72.7934V70.2028C42.3768 69.7883 42.4088 69.3571 42.4728 68.9094L35.2765 63.4402C34.5089 62.8645 34.0291 62.0969 33.8372 61.1374C33.6453 60.1779 33.8052 59.2823 34.317 58.4507L41.4173 46.0731C41.8651 45.1776 42.5521 44.6172 43.4784 44.392C44.4072 44.1694 45.3193 44.218 46.2149 44.5379L54.5626 47.9921C55.2662 47.4804 56.0018 47.0006 56.7694 46.5529C57.5371 46.1051 58.3047 45.7213 59.0723 45.4014L60.2237 36.478C60.3516 35.5185 60.7674 34.7189 61.471 34.0793C62.1747 33.4396 63.0062 33.1198 63.9658 33.1198H78.3584C79.3179 33.1198 80.1494 33.4396 80.8531 34.0793C81.5567 34.7189 81.9725 35.5185 82.1004 36.478L83.2518 45.4014C84.0834 45.7213 84.8677 46.1051 85.6046 46.5529C86.3389 47.0006 87.0579 47.4804 87.7615 47.9921L96.1092 44.5379C97.0048 44.218 97.9003 44.1861 98.7959 44.4419C99.6914 44.6978 100.395 45.2415 100.907 46.0731L108.007 58.4507C108.519 59.2823 108.679 60.1779 108.487 61.1374C108.295 62.0969 107.815 62.8645 107.048 63.4402L99.8513 68.9094C99.9153 69.3571 99.9473 69.7883 99.9473 70.2028V72.7934C99.9473 73.2105 99.8833 73.6429 99.7554 74.0907L106.952 79.5599C107.719 80.1356 108.199 80.9032 108.391 81.8627C108.583 82.8222 108.423 83.7178 107.911 84.5493L100.811 96.831C100.299 97.6626 99.5801 98.2229 98.6539 98.5121C97.725 98.7987 96.8129 98.782 95.9173 98.4622L87.7615 95.008C87.0579 95.5197 86.3223 95.9995 85.5547 96.4472C84.7871 96.895 84.0194 97.2788 83.2518 97.5986L82.1004 106.522C81.9725 107.482 81.5567 108.281 80.8531 108.921C80.1494 109.56 79.3179 109.88 78.3584 109.88ZM71.354 84.9331C75.0641 84.9331 78.2304 83.6218 80.8531 80.9992C83.4757 78.3765 84.7871 75.2101 84.7871 71.5C84.7871 67.7899 83.4757 64.6236 80.8531 62.0009C78.2304 59.3783 75.0641 58.0669 71.354 58.0669C67.5799 58.0669 64.3969 59.3783 61.8049 62.0009C59.2156 64.6236 57.9209 67.7899 57.9209 71.5C57.9209 75.2101 59.2156 78.3765 61.8049 80.9992C64.3969 83.6218 67.5799 84.9331 71.354 84.9331Z" fill="white"/>
<defs>
<filter id="filter0_di_235_808" x="0.542361" y="0.880312" width="147.38" height="147.38" filterUnits="userSpaceOnUse" color-interpolation-filters="sRGB">
<feFlood flood-opacity="0" result="BackgroundImageFix"/>
<feColorMatrix in="SourceAlpha" type="matrix" values="0 0 0 0 0 0 0 0 0 0 0 0 0 0 0 0 0 0 127 0" result="hardAlpha"/>
<feOffset dx="3.07042" dy="3.07042"/>
<feGaussianBlur stdDeviation="5.75704"/>
<feComposite in2="hardAlpha" operator="out"/>
<feColorMatrix type="matrix" values="0 0 0 0 0 0 0 0 0 0 0 0 0 0 0 0 0 0 0.25 0"/>
<feBlend mode="normal" in2="BackgroundImageFix" result="effect1_dropShadow_235_808"/>
<feBlend mode="normal" in="SourceGraphic" in2="effect1_dropShadow_235_808" result="shape"/>
<feColorMatrix in="SourceAlpha" type="matrix" values="0 0 0 0 0 0 0 0 0 0 0 0 0 0 0 0 0 0 127 0" result="hardAlpha"/>
<feOffset dy="3.07042"/>
<feGaussianBlur stdDeviation="1.53521"/>
<feComposite in2="hardAlpha" operator="arithmetic" k2="-1" k3="1"/>
<feColorMatrix type="matrix" values="0 0 0 0 1 0 0 0 0 1 0 0 0 0 1 0 0 0 0.25 0"/>
<feBlend mode="normal" in2="shape" result="effect2_innerShadow_235_808"/>
</filter>
</defs>
</svg>
