<svg width="143" height="103" viewBox="0 0 143 103" fill="none" xmlns="http://www.w3.org/2000/svg">
<rect x="0.848267" y="40.4034" width="12.8712" height="39.0203" rx="6.43562" transform="rotate(-10.5896 0.848267 40.4034)" fill="url(#paint0_linear_235_796)"/>
<rect x="134.016" y="78.8442" width="12.8712" height="39.0203" rx="6.43562" transform="rotate(-168.77 134.016 78.8442)" fill="url(#paint1_linear_235_796)"/>
<g filter="url(#filter0_ii_235_796)">
<path d="M7.98323 45.1003C3.81934 21.5769 21.9124 0 45.8015 0L96.1641 0C120.396 0 138.573 22.166 133.826 45.9287L128.766 71.2657C125.179 89.2221 109.414 102.149 91.1033 102.149L50.2864 102.149C31.6578 102.149 15.7151 88.7808 12.4681 70.4373L7.98323 45.1003Z" fill="#EB9837"/>
</g>
<g filter="url(#filter1_di_235_796)">
<path d="M21.0694 51.3073C18.0208 28.2938 35.9284 7.85754 59.1429 7.85754L85.5358 7.85754C109.769 7.85754 127.945 30.0251 123.198 53.7884L121.293 63.3208C117.706 81.2762 101.942 94.2022 83.6313 94.2022H60.4057C41.144 94.2022 24.8616 79.9345 22.3321 60.8397L21.0694 51.3073Z" fill="#3C3C3C"/>
</g>
<g filter="url(#filter2_i_235_796)">
<circle cx="91.3448" cy="42.1008" r="16.4742" fill="white"/>
</g>
<g filter="url(#filter3_i_235_796)">
<circle cx="56.3428" cy="42.1008" r="16.4742" fill="white"/>
</g>
<path d="M115.682 10.6286C115.728 9.42087 116.751 8.46025 117.935 8.70399C120.402 9.212 122.689 10.4185 124.511 12.2014C126.334 13.9843 127.59 16.2443 128.152 18.6999C128.421 19.8781 127.483 20.922 126.277 20.9936L125.761 21.0243C124.555 21.096 123.546 20.1579 123.163 19.0115C122.748 17.7681 122.041 16.6303 121.089 15.6991C120.137 14.768 118.984 14.0865 117.732 13.6985C116.578 13.3408 115.618 12.3525 115.663 11.1448L115.682 10.6286Z" fill="white" fill-opacity="0.34"/>
<path d="M89.112 65.8078C90.3206 65.8078 91.323 66.7987 91.0627 67.9789C90.4672 70.6786 88.7709 73.1917 86.1745 75.1523C82.8924 77.6306 78.4409 79.0229 73.7993 79.0229C69.1577 79.0229 64.7063 77.6306 61.4242 75.1523C58.8278 73.1917 57.1314 70.6786 56.536 67.9789C56.2756 66.7987 57.278 65.8078 58.4866 65.8078H60.5901C61.7987 65.8078 62.7483 66.814 63.1511 67.9535C63.6467 69.3556 64.6239 70.6483 66.0064 71.6922C68.0732 73.2529 70.8764 74.1296 73.7993 74.1296C76.7222 74.1296 79.5254 73.2529 81.5922 71.6922C82.9747 70.6483 83.952 69.3556 84.4475 67.9535C84.8503 66.814 85.7999 65.8078 87.0085 65.8078H89.112Z" fill="white"/>
<path d="M47.8498 48.3066C46.7953 48.3066 45.9224 47.4444 46.1182 46.4082C46.4994 44.3909 47.4826 42.5178 48.9611 41.0457C50.8952 39.1199 53.5184 38.0381 56.2536 38.0381C58.9888 38.0381 61.612 39.1199 63.5461 41.0457C65.0246 42.5178 66.0079 44.3909 66.389 46.4082C66.5848 47.4444 65.7119 48.3066 64.6574 48.3066C63.6029 48.3066 62.7751 47.4335 62.4671 46.425C62.1595 45.4182 61.6069 44.4919 60.8459 43.7342C59.6279 42.5215 57.9761 41.8403 56.2536 41.8403C54.5312 41.8403 52.8793 42.5215 51.6614 43.7342C50.9004 44.4919 50.3478 45.4182 50.0402 46.425C49.7321 47.4335 48.9044 48.3066 47.8498 48.3066Z" fill="#EB9837"/>
<circle cx="91.3003" cy="42.1455" r="6.78614" fill="#EB9837"/>
<path d="M75.2205 61.292C74.5888 62.3862 73.0095 62.3862 72.3777 61.292L72.0501 60.7244C71.4183 59.6302 72.208 58.2625 73.4715 58.2625L74.1268 58.2625C75.3903 58.2625 76.1799 59.6302 75.5482 60.7244L75.2205 61.292Z" fill="#E44734"/>
<defs>
<filter id="filter0_ii_235_796" x="7.38477" y="0" width="129.934" height="102.587" filterUnits="userSpaceOnUse" color-interpolation-filters="sRGB">
<feFlood flood-opacity="0" result="BackgroundImageFix"/>
<feBlend mode="normal" in="SourceGraphic" in2="BackgroundImageFix" result="shape"/>
<feColorMatrix in="SourceAlpha" type="matrix" values="0 0 0 0 0 0 0 0 0 0 0 0 0 0 0 0 0 0 127 0" result="hardAlpha"/>
<feOffset dx="1.09419" dy="0.437677"/>
<feGaussianBlur stdDeviation="2.18838"/>
<feComposite in2="hardAlpha" operator="arithmetic" k2="-1" k3="1"/>
<feColorMatrix type="matrix" values="0 0 0 0 1 0 0 0 0 1 0 0 0 0 1 0 0 0 0.4 0"/>
<feBlend mode="normal" in2="shape" result="effect1_innerShadow_235_796"/>
<feColorMatrix in="SourceAlpha" type="matrix" values="0 0 0 0 0 0 0 0 0 0 0 0 0 0 0 0 0 0 127 0" result="hardAlpha"/>
<feOffset dx="5.25212" dy="0.218838"/>
<feGaussianBlur stdDeviation="1.36774"/>
<feComposite in2="hardAlpha" operator="arithmetic" k2="-1" k3="1"/>
<feColorMatrix type="matrix" values="0 0 0 0 0.5375 0 0 0 0 0.304111 0 0 0 0 0.0313542 0 0 0 0.38 0"/>
<feBlend mode="normal" in2="effect1_innerShadow_235_796" result="effect2_innerShadow_235_796"/>
</filter>
<filter id="filter1_di_235_796" x="19.0892" y="7.85754" width="106.507" height="91.4874" filterUnits="userSpaceOnUse" color-interpolation-filters="sRGB">
<feFlood flood-opacity="0" result="BackgroundImageFix"/>
<feColorMatrix in="SourceAlpha" type="matrix" values="0 0 0 0 0 0 0 0 0 0 0 0 0 0 0 0 0 0 127 0" result="hardAlpha"/>
<feOffset dy="3.50142"/>
<feGaussianBlur stdDeviation="0.820644"/>
<feComposite in2="hardAlpha" operator="out"/>
<feColorMatrix type="matrix" values="0 0 0 0 0 0 0 0 0 0 0 0 0 0 0 0 0 0 0.35 0"/>
<feBlend mode="normal" in2="BackgroundImageFix" result="effect1_dropShadow_235_796"/>
<feBlend mode="normal" in="SourceGraphic" in2="effect1_dropShadow_235_796" result="shape"/>
<feColorMatrix in="SourceAlpha" type="matrix" values="0 0 0 0 0 0 0 0 0 0 0 0 0 0 0 0 0 0 127 0" result="hardAlpha"/>
<feOffset dx="-1.09419" dy="2.18838"/>
<feGaussianBlur stdDeviation="5.47096"/>
<feComposite in2="hardAlpha" operator="arithmetic" k2="-1" k3="1"/>
<feColorMatrix type="matrix" values="0 0 0 0 1 0 0 0 0 1 0 0 0 0 1 0 0 0 0.25 0"/>
<feBlend mode="normal" in2="shape" result="effect2_innerShadow_235_796"/>
</filter>
<filter id="filter2_i_235_796" x="74.8706" y="25.6266" width="32.9485" height="33.3862" filterUnits="userSpaceOnUse" color-interpolation-filters="sRGB">
<feFlood flood-opacity="0" result="BackgroundImageFix"/>
<feBlend mode="normal" in="SourceGraphic" in2="BackgroundImageFix" result="shape"/>
<feColorMatrix in="SourceAlpha" type="matrix" values="0 0 0 0 0 0 0 0 0 0 0 0 0 0 0 0 0 0 127 0" result="hardAlpha"/>
<feOffset dy="0.437677"/>
<feGaussianBlur stdDeviation="0.218838"/>
<feComposite in2="hardAlpha" operator="arithmetic" k2="-1" k3="1"/>
<feColorMatrix type="matrix" values="0 0 0 0 1 0 0 0 0 1 0 0 0 0 1 0 0 0 0.25 0"/>
<feBlend mode="normal" in2="shape" result="effect1_innerShadow_235_796"/>
</filter>
<filter id="filter3_i_235_796" x="39.8685" y="25.6266" width="32.9485" height="33.3862" filterUnits="userSpaceOnUse" color-interpolation-filters="sRGB">
<feFlood flood-opacity="0" result="BackgroundImageFix"/>
<feBlend mode="normal" in="SourceGraphic" in2="BackgroundImageFix" result="shape"/>
<feColorMatrix in="SourceAlpha" type="matrix" values="0 0 0 0 0 0 0 0 0 0 0 0 0 0 0 0 0 0 127 0" result="hardAlpha"/>
<feOffset dy="0.437677"/>
<feGaussianBlur stdDeviation="0.218838"/>
<feComposite in2="hardAlpha" operator="arithmetic" k2="-1" k3="1"/>
<feColorMatrix type="matrix" values="0 0 0 0 1 0 0 0 0 1 0 0 0 0 1 0 0 0 0.25 0"/>
<feBlend mode="normal" in2="shape" result="effect1_innerShadow_235_796"/>
</filter>
<linearGradient id="paint0_linear_235_796" x1="0.919847" y1="62.128" x2="5.81821" y2="62.4079" gradientUnits="userSpaceOnUse">
<stop stop-color="#E34633"/>
<stop offset="1" stop-color="#C83F3F"/>
</linearGradient>
<linearGradient id="paint1_linear_235_796" x1="134.834" y1="100.667" x2="140.205" y2="100.666" gradientUnits="userSpaceOnUse">
<stop offset="0.0001" stop-color="#E44734"/>
<stop offset="1" stop-color="#ED6648"/>
</linearGradient>
</defs>
</svg>
